<?xml version="1.0" encoding="UTF-8"?><svg id="Layer_2" xmlns="http://www.w3.org/2000/svg" viewBox="0 0 216.34 169.73"><defs><style>.cls-1{fill:#F6F4F2;}</style></defs><g id="Layer_1-2"><g><path class="cls-1" d="M86.6,53.52c-4.76,.26-7.11,5.86-9.27,9.3-2.51,3.97-5.08,7.89-7.74,11.77-1.86,2.73-5.1,6.09-4.18,9.69,.91,3.97,5.81,6.42,9.08,8.05,.1,.05,113.31,74.77,113.31,74.77,2.89,1.9,6.09,2.76,8.92,2.61,8.07-.44,14.03-9.67,17-15.2,.9-1.68,1.7-3.62,2.18-5.66,1.16-5.05,.3-10.77-6.13-15.01-.07-.05-113.31-74.77-113.31-74.77-2.89-1.9-7.02-5.69-9.85-5.54Z"/><rect class="cls-1" x="11.77" y="31.8" width="78.35" height="46.42" rx="12" ry="12" transform="translate(-23.03 67.24) rotate(-56.58)"/><path class="cls-1" d="M57.32,10.88c2.92-.18,5.91,.53,8.52,2.25l18.44,12.17c1.83,1.21,3.26,2.78,4.31,4.56,5.11-8.84,16.98-18.68,44.4-12.12-2.16-2.21-24.75-33.95-75.66-6.86Z"/><rect class="cls-1" x="15.58" y="72.36" width="16.39" height="49.85" rx="3.98" ry="3.98" transform="translate(-70.52 63.55) rotate(-56.58)"/></g></g></svg>
