<?xml version="1.0" encoding="UTF-8"?><svg id="Layer_2" xmlns="http://www.w3.org/2000/svg" viewBox="0 0 31.71 28.17"><defs><style>.cls-1{fill:#F2A341;}</style></defs><g id="Layer_1-2"><path class="cls-1" d="M22.48,0H9.24c-.93,0-1.8,.5-2.27,1.31L.35,12.77c-.47,.81-.47,1.81,0,2.62l6.62,11.47c.47,.81,1.33,1.31,2.27,1.31h13.24c.93,0,1.8-.5,2.27-1.31l6.62-11.47c.47-.81,.47-1.81,0-2.62L24.74,1.31c-.47-.81-1.33-1.31-2.27-1.31Zm-5.02,19.46h-3.19c-.93,0-1.8-.5-2.27-1.31l-1.6-2.76c-.47-.81-.47-1.81,0-2.62l1.6-2.76c.47-.81,1.33-1.31,2.27-1.31h3.19c.93,0,1.8,.5,2.27,1.31l1.6,2.76c.47,.81,.47,1.81,0,2.62l-1.6,2.76c-.47,.81-1.33,1.31-2.27,1.31Z"/></g></svg>
