<?xml version="1.0" encoding="UTF-8"?><svg id="Layer_2" xmlns="http://www.w3.org/2000/svg" viewBox="0 0 175.96 139.66"><defs><style>.cls-1{fill:#F6F4F2;}</style></defs><g id="Layer_1-2"><rect class="cls-1" x="59.82" y="-10.71" width="7.65" height="56.06" rx="3.82" ry="3.82" transform="translate(13.77 60.49) rotate(-56.1)"/><g><path class="cls-1" d="M47.17,92.08c1.17-1.75,.7-4.13-1.04-5.31L5.95,59.78c-1.75-1.17-4.13-.7-5.31,1.04s-.7,4.13,1.04,5.31l40.18,27c1.75,1.17,4.13,.7,5.31-1.04Z"/><rect class="cls-1" x="26.71" y="38.57" width="7.65" height="56.06" rx="3.82" ry="3.82" transform="translate(-41.77 54.79) rotate(-56.1)"/><rect class="cls-1" x="33.33" y="28.71" width="7.65" height="56.06" rx="3.82" ry="3.82" transform="translate(-30.66 55.93) rotate(-56.1)"/><path class="cls-1" d="M67.04,62.52c1.17-1.75,.7-4.13-1.04-5.31L25.82,30.21c-1.75-1.17-4.13-.7-5.31,1.04s-.7,4.13,1.04,5.31l40.18,27c1.75,1.17,4.13,.7,5.31-1.04Z"/><path class="cls-1" d="M73.66,52.66c1.17-1.75,.7-4.13-1.04-5.31L32.44,20.36c-1.75-1.17-4.13-.7-5.31,1.04s-.7,4.13,1.04,5.31l40.18,27c1.75,1.17,4.13,.7,5.31-1.04Z"/><path class="cls-1" d="M80.29,42.81c1.17-1.75,.7-4.13-1.04-5.31L39.07,10.5c-1.75-1.17-4.13-.7-5.31,1.04s-.7,4.13,1.04,5.31l40.18,27c1.75,1.17,4.13,.7,5.31-1.04Z"/><path class="cls-1" d="M103.6,39.63c-1.56-1.01-3.65-.59-4.68,.96-5.78,8.6-11.56,17.21-17.34,25.81h0c-6.45,9.59-16.07,23.91-22.51,33.5-1.04,1.54-.64,3.64,.88,4.7,2.95,2.05,5.9,4.1,8.84,6.15,2.44,1.69,5.21,3.47,8.14,3.01,2.33-.37,4.19-2.07,6-3.59,4.16-3.48,8.84-6.34,13.84-8.45,1.72-.73,3.58-1.38,5.42-1.09,1.63,.25,3.05,1.2,4.42,2.12,16.63,11.22,33.26,22.44,49.9,33.66,2.84,1.92,6.16,3.93,9.48,3.05,2.22-.58,3.89-2.35,5.26-4.22,1.22-1.97,4.99-8.31,4.69-10.58-.44-3.4-3.56-5.72-6.41-7.62-16.67-11.16-33.35-22.32-50.02-33.48-1.37-.92-2.78-1.88-3.63-3.29-.96-1.6-1.06-3.56-1.04-5.43,.07-5.43,.94-10.84,2.6-16.01,.72-2.25,1.6-4.61,1.05-6.91-.68-2.89-3.37-4.78-5.86-6.4-3.01-1.96-6.02-3.91-9.03-5.87Z"/><path class="cls-1" d="M95.69,37.95c1.21-1.8,.73-4.26-1.07-5.47s-4.26-.73-5.47,1.07l-40.58,60.38c-1.21,1.8-.73,4.26,1.07,5.47s4.26,.73,5.47-1.07l40.58-60.38Z"/></g></g></svg>
