<?xml version="1.0" encoding="UTF-8"?><svg id="Layer_2" xmlns="http://www.w3.org/2000/svg" viewBox="0 0 202.23 66.92"><defs><style>.cls-1{fill:#f3a440;}</style></defs><g id="Layer_1-2"><g><g><path class="cls-1" d="M145.65,40.47c0-.71-.58-1.28-1.28-1.28s-1.28,.58-1.28,1.28,.58,1.28,1.28,1.28,1.28-.58,1.28-1.28Z"/><path class="cls-1" d="M176.48,0l-3.35,2.58,3.65,4.74h-49.66v14.88h9.91v2.28c0,.33,.27,.6,.6,.6s.6-.27,.6-.6v-2.28h14.27v2.28c0,.33,.27,.6,.6,.6s.6-.27,.6-.6v-2.28h12.92v21.43h-39.51v15.97h49.66l-3.65,4.74,3.35,2.58,25.75-33.46L176.48,0Zm-45.13,20.32h-.6V8.64h.6v11.68Zm3.84,0h-.6V8.64h.6v11.68Zm3.84,0h-.6V8.64h.6v11.68Zm3.84,0h-.6V8.64h.6v11.68Zm3.84,0h-.6V8.64h.6v11.68Zm3.84,0h-.6V8.64h.6v11.68Zm3.84,0h-.6V8.64h.6v11.68Zm3.84,0h-.6V8.64h.6v11.68Zm3.84,0h-.6V8.64h.6v11.68Zm3.84,0h-.6V8.64h.6v11.68Zm-34.56,36.88h-.6v-11.68h.6v11.68Zm3.84,0h-.6v-11.68h.6v11.68Zm3.84,0h-.6v-11.68h.6v11.68Zm3.84,0h-.6v-11.68h.6v11.68Zm3.84,0h-.6v-11.68h.6v11.68Zm3.84,0h-.6v-11.68h.6v11.68Zm3.84,0h-.6v-11.68h.6v11.68Zm3.84,0h-.6v-11.68h.6v11.68Zm3.84,0h-.6v-11.68h.6v11.68Zm3.84,0h-.6v-11.68h.6v11.68Zm4.5,.76l-.27-49h.6s.27,48.99,.27,48.99h-.6Zm4.23-.35l-.27-49h.6s.27,48.99,.27,48.99h-.6Zm4-.02l-.27-49h.6s.27,48.99,.27,48.99h-.6Zm3.27-4.53l-.2-39.64h.6s.2,39.64,.2,39.64h-.6Zm3.27-4.53l-.13-30.28h.6s.13,30.28,.13,30.28h-.6Zm3.27-4.53l-.07-20.93h.6s.07,20.93,.07,20.93h-.6Zm3.27-4.53v-11.57h.6v11.57h-.6Z"/></g><g><path class="cls-1" d="M0,25.76l3.75-2.84c1.36,1.83,2.94,2.75,4.75,2.75,.26,0,.58-.02,.97-.06v4.91c-.22,.02-.43,.03-.65,.03-4.16,0-7.1-1.59-8.82-4.78Zm10.7-1c0-.75-.15-1.29-.45-1.6-.3-.31-.87-.65-1.71-1.02l-2.2-.97c-3.6-1.57-5.4-3.72-5.4-6.43,0-1.59,.51-2.94,1.53-4.04,1.02-1.1,2.39-1.8,4.09-2.1v5.43c0,.69,.13,1.19,.39,1.49,.26,.3,.74,.6,1.45,.91l2.46,1.03c1.85,.78,3.23,1.66,4.12,2.67,.89,1,1.34,2.26,1.34,3.77,0,1.68-.51,3.09-1.53,4.22-1.02,1.13-2.39,1.87-4.09,2.21v-5.56Zm-.32-10.89c-.54-.37-1.23-.55-2.07-.55-.15,0-.32,.01-.52,.03v-4.88c.19-.02,.37-.03,.52-.03,3.49,0,5.96,1.43,7.4,4.3l-3.72,2.84c-.54-.78-1.08-1.35-1.62-1.71Z"/><path class="cls-1" d="M25.05,30.15h-5.56V8.82h5.56V30.15Zm13.35,0h-5.56v-8.53h-6.56v-5.01h6.56v-7.79h5.56V30.15Z"/><path class="cls-1" d="M42.67,8.82h14.8v5.01h-9.24v11.31h9.63v5.01h-15.19V8.82Zm6.79,7.95h5.36v4.65h-5.36v-4.65Z"/><path class="cls-1" d="M66.87,30.15h-5.56V8.82h5.56V30.15Zm10.21-18.44c2.2,1.93,3.3,4.49,3.3,7.68s-1.1,5.81-3.31,7.79c-2.21,1.98-4.98,2.97-8.32,2.97h-.65v-5.01h.61c1.74,0,3.18-.51,4.3-1.52,1.12-1.01,1.68-2.42,1.68-4.23s-.55-3.16-1.66-4.12-2.55-1.44-4.31-1.44h-.61v-5.01h.65c3.36,0,6.14,.96,8.34,2.89Z"/><path class="cls-1" d="M89.11,30.15h-5.56V8.82h5.56V30.15Zm10.21-18.44c2.2,1.93,3.3,4.49,3.3,7.68s-1.1,5.81-3.31,7.79c-2.21,1.98-4.98,2.97-8.32,2.97h-.65v-5.01h.61c1.74,0,3.18-.51,4.3-1.52,1.12-1.01,1.68-2.42,1.68-4.23s-.55-3.16-1.66-4.12-2.55-1.44-4.31-1.44h-.61v-5.01h.65c3.36,0,6.14,.96,8.34,2.89Z"/><path class="cls-1" d="M115.65,20.94v9.21h-5.56v-8.14l-7.34-13.19h6.14l6.75,12.12Zm.71-1.16l-2.91-5.27,3.39-5.69h6.11l-6.59,10.96Z"/><path class="cls-1" d="M24.08,42.67l2.53,5.78-1.07,2.47h2.16l1.68,3.87h-5.53l-.67,1.54h-5.19l6.09-13.67Zm.62-1.35l1.71-3.85h1.54l8.42,18.87h-5.14l-6.54-15.02Z"/><path class="cls-1" d="M43.12,56.34h-4.83v-18.53h4.83v18.53Zm8.87-16.02c1.91,1.68,2.86,3.9,2.86,6.67s-.96,5.04-2.88,6.77c-1.92,1.72-4.33,2.58-7.23,2.58h-.56v-4.35h.53c1.52,0,2.76-.44,3.73-1.32,.97-.88,1.46-2.11,1.46-3.68s-.48-2.75-1.45-3.58-2.21-1.25-3.75-1.25h-.53v-4.35h.56c2.92,0,5.33,.84,7.24,2.51Z"/><path class="cls-1" d="M67.18,52.3l-1.96,4.38h-1.54l-8.42-18.87h5.48l6.46,14.49Zm.59-1.35l-2.72-6.12,3.12-7.02h5.48l-5.87,13.14Z"/><path class="cls-1" d="M75.55,37.81h4.83v18.53h-4.83v-18.53Z"/><path class="cls-1" d="M86.06,53.91c-1.96-1.84-2.93-4.12-2.93-6.84,0-1.78,.45-3.4,1.35-4.87,.9-1.47,2.1-2.62,3.59-3.44v8.03c0,1.7,.47,3.04,1.4,4,.94,.96,2.16,1.45,3.68,1.45,2,0,3.6-1.01,4.8-3.03l3.68,2.5c-.84,1.59-2.01,2.82-3.5,3.68-1.49,.86-3.14,1.29-4.96,1.29-2.79,0-5.16-.92-7.12-2.77Zm7.01-12c-1.57,0-2.88,.46-3.93,1.38v-5.05c1.25-.5,2.57-.76,3.96-.76,1.85,0,3.53,.44,5.03,1.31,1.5,.87,2.67,2.09,3.51,3.66l-3.68,2.5c-1.2-2.02-2.83-3.03-4.89-3.03Z"/><path class="cls-1" d="M104.38,37.81h12.86v4.35h-8.03v9.83h8.37v4.35h-13.2v-18.53Zm5.9,6.91h4.66v4.04h-4.66v-4.04Z"/></g></g></g></svg>