<?xml version="1.0" encoding="UTF-8"?><svg id="Layer_2" xmlns="http://www.w3.org/2000/svg" viewBox="0 0 210.98 187.51"><defs><style>.cls-1{fill:#5DA668;}</style></defs><g id="Layer_1-2"><g><path class="cls-1" d="M152.4,54.16c2.83,3.43,5.77,5.82,8.05,7.4,.11,.08,.22,.14,.33,.21,12.3,7.12,27.72,5.85,38.39-3.08,10.03-8.4,14.07-22.09,10.59-34.69-.72-2.61-3.9-3.6-5.97-1.86l-18.35,15.35c-1.57,1.32-3.91,1.11-5.23-.46l-5.8-6.93c-1.32-1.57-1.11-3.91,.46-5.23l18.32-15.33c2.08-1.74,1.65-5.05-.8-6.21-11.85-5.61-26-4.04-35.98,4.29-10.29,8.6-14.37,22.91-10.22,36.07,.04,.13,.09,.25,.14,.38,1.11,2.69,2.96,6.35,6.05,10.11Z"/><path class="cls-1" d="M137.9,50.88L57.65,118.03c-2.8,2.34-3.13,6.52-.74,9.28l6.44,7.41c2.33,2.68,6.38,3,9.1,.72l79.96-66.92c2.72-2.28,3.12-6.32,.89-9.09l-6.16-7.64c-2.29-2.84-6.46-3.25-9.26-.91Z"/><path class="cls-1" d="M49.42,125.16c-.11-.07-.22-.13-.34-.19-12.22-6.41-27.03-4.92-37.31,3.7-9.94,8.33-13.98,21.94-10.59,34.58,.71,2.65,3.95,3.67,6.06,1.9l18.22-15.25c1.59-1.33,3.97-1.12,5.3,.47l5.73,6.85c1.33,1.59,1.12,3.97-.47,5.3l-18.3,15.32c-2.09,1.75-1.69,5.07,.75,6.27,11.46,5.61,25.63,4.35,36.04-4.36,11.19-9.37,14.67-24.52,9.73-37.43-1.14-2.57-3.03-6.09-6.14-9.68-3.1-3.58-6.3-5.96-8.69-7.47Z"/></g></g></svg>
